<svg width="24px" height="24px" viewBox="0 0 32 32" xmlns="http://www.w3.org/2000/svg">
<path opacity="0.4" fill-rule="evenodd" clip-rule="evenodd" d="M30.87,21.8l-9.23-16a1,1,0,0,0-.92-.49l-8.23.49a1,1,0,0,0-.78.45L7.17,13.15a1,1,0,0,0,0,1l9.23,16a1,1,0,0,0,.6.46,1.17,1.17,0,0,0,.26,0,1,1,0,0,0,.5-.14L30.5,23.16A1,1,0,0,0,30.87,21.8Z"></path>
<path d="M18.45,9.11l-8-4a1,1,0,0,0-.9,0l-8,4A1,1,0,0,0,1,10V30a1,1,0,0,0,1,1H18a1,1,0,0,0,1-1V10A1,1,0,0,0,18.45,9.11Z"></path>
<path d="M10,11a1,1,0,0,1-1-1V2a1,1,0,0,1,2,0v8A1,1,0,0,1,10,11Z"></path>
</svg>